<?xml version="1.0" encoding="utf-8"?>
<!-- Generator: Adobe Illustrator 16.0.0, SVG Export Plug-In . SVG Version: 6.00 Build 0)  -->
<!DOCTYPE svg PUBLIC "-//W3C//DTD SVG 1.1//EN" "http://www.w3.org/Graphics/SVG/1.1/DTD/svg11.dtd">
<svg version="1.1" id="Layer_1" xmlns="http://www.w3.org/2000/svg" xmlns:xlink="http://www.w3.org/1999/xlink" x="0px" y="0px"
	 width="18.734px" height="21.349px" viewBox="0 0 18.734 21.349" enable-background="new 0 0 18.734 21.349" xml:space="preserve">
<g>
	<g>
		<path fill="#848988" d="M18.08,2.612h-5.422V0.653C12.658,0.292,12.365,0,12.004,0S11.35,0.292,11.35,0.653v5.801
			c0,1.095-0.889,1.984-1.982,1.984s-1.984-0.89-1.984-1.984V1.307h1.33v4.885c0,0.36,0.293,0.653,0.654,0.653
			c0.359,0,0.652-0.293,0.652-0.653V0.653C10.02,0.292,9.727,0,9.367,0H6.73C6.369,0,6.076,0.292,6.076,0.653v1.959H0.652
			C0.291,2.612,0,2.905,0,3.266v17.43c0,0.36,0.291,0.653,0.652,0.653H18.08c0.361,0,0.654-0.293,0.654-0.653V3.266
			C18.734,2.905,18.441,2.612,18.08,2.612L18.08,2.612z M17.426,20.041H1.307V3.919h4.77v2.535c0,1.815,1.477,3.291,3.291,3.291
			s3.291-1.476,3.291-3.291V3.919h4.768V20.041z M17.426,20.041"/>
	</g>
</g>
</svg>
